<?xml version="1.0" encoding="utf-8"?>
<!-- Generator: Adobe Illustrator 21.0.0, SVG Export Plug-In . SVG Version: 6.00 Build 0)  -->
<svg version="1.1" id="Layer_1" xmlns="http://www.w3.org/2000/svg" xmlns:xlink="http://www.w3.org/1999/xlink" x="0px" y="0px"
	 viewBox="0 0 52.2 44.3" style="enable-background:new 0 0 52.2 44.3;" xml:space="preserve">
<style type="text/css">
	.st0{fill:#3E54FF;}
</style>
<g>
	<path class="st0" d="M48.2,35.7l-8.7-15.8c-1.6-2.6-5.4-2.6-6.8,0.2l-5.2,9.4c-0.7,1.2-0.7,2.6,0,3.8l3.5,6.4
		c0.7,1.2,1.9,1.9,3.3,1.9h10.4C47.7,41.3,49.6,38.3,48.2,35.7z"/>
	<path class="st0" d="M27.7,37.3L27.7,37.3c-0.9-1.9-3.8-1.9-4.9,0l0,0c-0.9,1.9,0.2,4,2.4,4l0,0C27.5,41.3,28.9,39.2,27.7,37.3z"/>
	<polygon class="st0" points="24.9,2.7 3.5,41.3 18.3,41.3 32.4,16.1 	"/>
</g>
</svg>
