<?xml version="1.0" encoding="utf-8"?>
<!-- Generator: Adobe Illustrator 21.0.0, SVG Export Plug-In . SVG Version: 6.00 Build 0)  -->
<svg version="1.1" id="Layer_1" xmlns="http://www.w3.org/2000/svg" xmlns:xlink="http://www.w3.org/1999/xlink" x="0px" y="0px"
	 viewBox="0 0 94.2 22.3" style="enable-background:new 0 0 94.2 22.3;" xml:space="preserve">
<style type="text/css">
	.st0{fill:#333333;}
	.st1{fill:#3E54FF;}
</style>
<title>dd</title>
<g>
	<path class="st0" d="M32.5,11.1c0.5,0.6,0.7,1.2,0.7,2c0,1.1-0.4,1.9-1.1,2.5c-0.7,0.6-1.7,0.9-3.1,0.9h-5.4V3.9h5.3
		c1.3,0,2.3,0.3,3,0.8c0.7,0.6,1,1.4,1,2.4c0,0.8-0.2,1.4-0.6,1.9c-0.4,0.5-1,0.8-1.6,1C31.4,10.2,32,10.5,32.5,11.1z M26.1,9.2h2.3
		c0.6,0,1.1-0.1,1.4-0.4c0.3-0.3,0.5-0.7,0.5-1.2c0-0.5-0.2-0.9-0.5-1.2C29.5,6,29,5.9,28.3,5.9h-2.2V9.2z M30,14
		c0.4-0.3,0.5-0.7,0.5-1.3c0-0.6-0.2-1-0.5-1.3c-0.4-0.3-0.9-0.5-1.6-0.5h-2.4v3.5h2.4C29.2,14.5,29.7,14.3,30,14z"/>
	<path class="st0" d="M35.1,2.7c0.3-0.3,0.7-0.4,1.1-0.4s0.8,0.1,1.1,0.4s0.4,0.6,0.4,1c0,0.4-0.1,0.7-0.4,1s-0.7,0.4-1.1,0.4
		S35.4,5,35.1,4.7c-0.3-0.3-0.4-0.6-0.4-1C34.6,3.3,34.8,3,35.1,2.7z M37.5,6.6v9.9h-2.5V6.6H37.5z"/>
	<path class="st0" d="M41.8,14.4h4.9v2.1H39v-2l4.6-5.8h-4.5V6.6h7.4v2L41.8,14.4z"/>
	<path class="st0" d="M51.6,5.2c-0.3,0.3-0.4,0.7-0.4,1.4v0h2v2.1h-2v7.8h-2.5V8.7h-1.3V6.6h1.3V6.4c0-1.2,0.3-2.1,1-2.7
		c0.7-0.6,1.7-1,3-1c0.2,0,0.4,0,0.5,0v2.2C52.4,4.8,51.9,4.9,51.6,5.2z"/>
	<path class="st0" d="M54.8,2.7c0.3-0.3,0.7-0.4,1.1-0.4s0.8,0.1,1.1,0.4c0.3,0.3,0.4,0.6,0.4,1c0,0.4-0.1,0.7-0.4,1
		C56.8,5,56.4,5.1,56,5.1S55.1,5,54.8,4.7c-0.3-0.3-0.4-0.6-0.4-1C54.4,3.3,54.5,3,54.8,2.7z M57.2,6.6v9.9h-2.5V6.6H57.2z"/>
	<path class="st0" d="M68.2,7.6c0.7,0.8,1,1.8,1,3.2v5.8h-2.5V11c0-0.8-0.2-1.4-0.6-1.8c-0.4-0.4-1-0.7-1.7-0.7
		c-0.7,0-1.3,0.2-1.7,0.7c-0.4,0.5-0.6,1.1-0.6,2v5.3h-2.5V6.6H62v2c0.3-0.7,0.7-1.2,1.3-1.6c0.6-0.4,1.3-0.6,2.1-0.6
		C66.6,6.4,67.5,6.8,68.2,7.6z"/>
	<path class="st0" d="M71.6,2.7c0.3-0.3,0.7-0.4,1.1-0.4s0.8,0.1,1.1,0.4s0.4,0.6,0.4,1c0,0.4-0.1,0.7-0.4,1s-0.7,0.4-1.1,0.4
		S71.9,5,71.6,4.7c-0.3-0.3-0.4-0.6-0.4-1C71.1,3.3,71.3,3,71.6,2.7z M73.9,6.6v9.9h-2.5V6.6H73.9z"/>
	<path class="st0" d="M81.6,14.4v2.2h-1.3c-1.1,0-2-0.3-2.6-0.8c-0.6-0.5-0.9-1.4-0.9-2.7V8.7h-1.4V6.6h1.4V4.1h2.5v2.5h2.2v2.1
		h-2.2v4.3c0,0.5,0.1,0.8,0.3,1c0.2,0.2,0.5,0.3,1,0.3H81.6z"/>
	<path class="st0" d="M85.1,6.6l2.7,6.7l2.5-6.7h2.8L87,21.3h-2.8l2.2-5l-4.2-9.7H85.1z"/>
</g>
<g>
	<path class="st1" d="M19.4,14.8l-3.7-6.7C15,7,13.4,7,12.8,8.2l-2.2,4c-0.3,0.5-0.3,1.1,0,1.6l1.5,2.7c0.3,0.5,0.8,0.8,1.4,0.8h4.4
		C19.2,17.2,20,15.9,19.4,14.8z"/>
	<path class="st1" d="M10.7,15.5L10.7,15.5c-0.4-0.8-1.6-0.8-2.1,0l0,0c-0.4,0.8,0.1,1.7,1,1.7h0C10.6,17.2,11.2,16.3,10.7,15.5z"/>
	<polygon class="st1" points="9.5,0.8 0.4,17.2 6.7,17.2 12.7,6.5 	"/>
</g>
</svg>
